<?xml version="1.0" encoding="utf-8"?>
<!-- Generator: Adobe Illustrator 16.0.0, SVG Export Plug-In . SVG Version: 6.00 Build 0)  -->
<!DOCTYPE svg PUBLIC "-//W3C//DTD SVG 1.1//EN" "http://www.w3.org/Graphics/SVG/1.1/DTD/svg11.dtd">
<svg version="1.1" xmlns="http://www.w3.org/2000/svg" xmlns:xlink="http://www.w3.org/1999/xlink" x="0px" y="0px"
	 width="616.473px" height="87.633px" viewBox="0 0 616.473 87.633" enable-background="new 0 0 616.473 87.633"
	 xml:space="preserve">
<g id="Layer_1">
	<path fill="#F26425" d="M608.707,52.9c-4.283,0-7.766,3.484-7.766,7.766s3.482,7.764,7.766,7.764c4.281,0,7.766-3.482,7.766-7.764
		S612.988,52.9,608.707,52.9z"/>
</g>
<g id="Default">
	<g>
		<path fill="#FFFFFF" d="M6.041,15.434L0,15.432L0.008,1.497l29.074,0.012c13.285,0.005,22.574,5.954,22.566,17.382
			c0,7.432-4.275,12.26-7.715,14.115v0.186c7.617,2.326,10.4,9.109,10.4,14.961C54.328,62.645,42.246,67.936,29.057,67.93
			l-16.258-0.008c-4.736,0-6.781-2.045-6.777-6.783L6.041,15.434z M24.697,53.992l5.945,0.004c4.457,0.002,6.596-3.248,6.598-6.965
			c0.002-3.715-2.043-6.781-6.5-6.783l-8.082-0.004l-0.006,11.705C22.652,53.25,23.396,53.992,24.697,53.992z M29.26,27.24
			c3.902,0.002,5.668-2.969,5.67-6.127c0-3.066-1.764-5.668-5.945-5.67l-6.316-0.002l-0.006,11.797L29.26,27.24z"/>
		<path fill="#FFFFFF" d="M64.924,35.617c0.002-1.301-0.742-2.045-2.045-2.045L59.35,33.57L59.357,20.1l14.211,0.006
			c4.365,0.002,6.781,1.768,6.781,6.135l-0.002,2.508c0,1.486-0.186,2.416-0.186,2.416h0.186
			c2.045-6.502,8.086-11.889,15.236-11.885c0.932,0,1.859,0.188,1.859,0.188l-0.008,15.791c0,0-1.297-0.279-3.25-0.279
			c-3.807-0.002-10.033,1.203-12.357,8.355c-0.561,1.764-0.838,3.9-0.838,6.502l-0.01,18.115l-16.068-0.008L64.924,35.617z"/>
		<path fill="#FFFFFF" d="M127.348,37.871h0.646l0.004-0.557c0-4.553-2.135-6.225-6.131-6.227c-2.043-0.002-4.182,0.463-4.182,2.32
			v2.137l-14.861-0.006l0.002-5.295c0.004-10.684,13.566-11.236,19.047-11.232c16.723,0.006,22.199,8.555,22.195,19.516
			l-0.008,13.936c0,1.301,0.744,2.043,2.045,2.045h3.529l-0.008,13.471l-13.934-0.006c-4.643-0.002-6.314-2.883-6.314-5.02
			c0-0.371,0-0.836,0-0.836h-0.186c0,0-3.346,6.967-13.381,6.963c-8.916-0.004-16.252-5.953-16.248-15.428
			C99.568,39.439,119.914,37.867,127.348,37.871z M120.279,56.818c4.18,0.002,7.896-4.549,7.896-8.449l0.004-0.744h-1.486
			c-5.111-0.002-10.963,1.389-10.965,5.197C115.729,55.053,117.119,56.818,120.279,56.818z"/>
		<path fill="#FFFFFF" d="M154.656,35.096c-0.371-1.021-0.928-1.486-2.043-1.488h-1.207l0.004-13.471l10.217,0.006
			c3.438,0,5.668,1.395,6.504,3.904l7.234,21.555c1.023,3.064,1.762,7.711,1.762,7.711h0.186c0,0,0.748-4.645,1.77-7.711
			l7.164-21.549c0.836-2.508,3.252-3.9,6.596-3.898l9.383,0.004l-0.006,13.471l-1.207-0.002c-1.115,0-1.859,0.465-2.23,1.486
			L186.6,67.994l-19.602-0.01L154.656,35.096z"/>
		<path fill="#FFFFFF" d="M229.438,19.055c14.123,0.006,22.105,9.855,22.104,23.139c-0.002,1.58-0.375,4.832-0.375,4.832
			l-30.189-0.012c1.205,6.037,6.031,8.734,11.141,8.736c6.877,0.002,12.73-5.012,12.73-5.012l6.406,10.777
			c0,0-7.715,7.615-20.441,7.609c-17.094-0.006-26.283-12.365-26.279-25.092C204.539,30.006,214.02,19.049,229.438,19.055z
			 M235.1,37.264c0-2.973-2.322-6.131-5.664-6.133c-4.645-0.002-6.969,2.598-7.994,6.127L235.1,37.264z"/>
		<path fill="#F26425" d="M291.576,0c-20.082,0-35.234,14.787-35.242,34.395c-0.004,9.631,3.541,18.523,9.98,25.043
			c6.504,6.582,15.471,10.209,25.246,10.213h0.016c20.084,0,35.236-15.145,35.244-35.229C326.826,14.807,311.682,0.008,291.576,0z
			 M274.613,34.4c0.004-10.133,7.455-18.072,16.963-18.072V15.83l0,0l0.006,0.498c9.514,0.004,16.965,7.949,16.961,18.086
			c-0.006,10.604-7.459,18.91-16.975,18.908C282.057,53.318,274.609,45.008,274.613,34.4z M291.576,69.15L291.576,69.15
			L291.576,69.15L291.576,69.15z"/>
		<path fill="#FFFFFF" d="M336.529,35.727c0.004-1.301-0.74-2.045-2.041-2.045l-3.529-0.002l0.004-13.469l14.213,0.006
			c4.367,0.002,6.781,1.768,6.781,6.133l-0.002,2.508c0,1.486-0.188,2.416-0.188,2.416h0.188
			c2.043-6.502,8.084-11.887,15.238-11.885c0.93,0,1.857,0.188,1.857,0.188l-0.008,15.791c0,0-1.297-0.279-3.248-0.279
			c-3.811-0.002-10.035,1.203-12.359,8.355c-0.561,1.764-0.838,3.9-0.838,6.502l-0.01,18.115l-16.068-0.006L336.529,35.727z"/>
		<path fill="#FFFFFF" d="M398.955,37.98h0.65v-0.557c0-4.553-2.135-6.225-6.129-6.227c-2.045,0-4.182,0.463-4.182,2.32v2.137
			l-14.863-0.006l0.002-5.295c0.002-10.684,13.564-11.234,19.047-11.232c16.721,0.006,22.199,8.555,22.195,19.518l-0.006,13.934
			c0,1.301,0.74,2.045,2.041,2.045l3.531,0.002l-0.006,13.469l-13.934-0.006c-4.645-0.002-6.318-2.883-6.314-5.02
			c0-0.371,0-0.836,0-0.836h-0.186c0,0-3.348,6.967-13.379,6.963c-8.918-0.004-16.258-5.951-16.252-15.428
			C371.176,39.549,391.523,37.979,398.955,37.98z M391.887,56.93c4.178,0,7.898-4.549,7.898-8.451v-0.744h-1.486
			c-5.109-0.002-10.961,1.389-10.965,5.197C387.334,55.162,388.729,56.928,391.887,56.93z"/>
		<path fill="#FFFFFF" d="M430.162,35.764c0.004-1.301-0.74-2.043-2.041-2.043l-3.529-0.002l0.006-13.471l14.307,0.006
			c4.363,0.002,6.688,2.139,6.684,5.391v0.65c0,0.465-0.094,1.115-0.094,1.115h0.188c2.229-3.715,6.691-8.266,15.145-8.262
			c9.662,0.004,17.186,4.465,17.178,17.936l-0.006,15.514c0,1.301,0.744,2.045,2.045,2.045l3.527,0.002l-0.006,13.469l-14.863-0.006
			c-4.738-0.002-6.777-2.047-6.777-6.783l0.01-21.273c0.002-4.459-1.764-6.318-5.293-6.32c-5.018-0.002-8.082,2.785-9.479,6.871
			c-0.65,1.857-0.93,3.994-0.934,6.316l-0.006,21.18l-16.07-0.006L430.162,35.764z"/>
		<path fill="#FFFFFF" d="M508.941,19.168c9.756,0.004,13.84,5.578,13.84,5.578h0.186c0,0,0-0.277,0-0.648
			c0-1.301,1.488-3.809,5.111-3.807l14.49,0.006l-0.004,13.469h-3.346c-1.207-0.002-2.043,0.648-2.043,1.764l-0.01,28.24
			c-0.008,17.463-13.947,23.867-27.043,23.863c-6.412-0.004-13.471-1.863-18.115-4.281l4.65-12.539c0,0,5.854,3.068,13.379,3.072
			c5.758,0.002,11.055-2.133,11.055-9.193v-0.742c0-0.559,0.096-1.766,0.096-1.766h-0.186c-2.791,3.064-6.41,4.549-11.984,4.547
			c-14.4-0.006-21.547-11.807-21.543-24.068C487.48,30.492,494.449,19.162,508.941,19.168z M521.475,42.861
			c0.002-8.453-4.455-10.314-9.285-10.316c-5.666-0.002-8.549,4.084-8.551,9.566c-0.004,5.945,2.783,11.24,9.191,11.244
			C517.012,53.355,521.471,51.221,521.475,42.861z"/>
		<g>
			<path fill="#FFFFFF" d="M571.551,19.193c14.119,0.006,22.102,9.855,22.098,23.139c0,1.58-0.371,4.832-0.371,4.832l-30.191-0.012
				c1.205,6.037,6.031,8.734,11.143,8.736c6.875,0.002,12.729-5.012,12.729-5.012l6.404,10.777c0,0-7.713,7.615-20.438,7.609
				c-17.094-0.006-26.285-12.365-26.279-25.092C546.648,30.145,556.127,19.188,571.551,19.193z M577.207,37.402
				c0.004-2.973-2.318-6.131-5.664-6.133c-4.643-0.002-6.967,2.598-7.988,6.127L577.207,37.402z"/>
		</g>
	</g>
</g>
</svg>
